<?xml version="1.0" standalone="no"?>
<!DOCTYPE svg PUBLIC "-//W3C//DTD SVG 20010904//EN"
 "http://www.w3.org/TR/2001/REC-SVG-20010904/DTD/svg10.dtd">
<svg version="1.0" xmlns="http://www.w3.org/2000/svg"
 width="385.000000pt" height="344.000000pt" viewBox="0 0 385.000000 344.000000"
 preserveAspectRatio="xMidYMid meet">

<g transform="translate(0.000000,344.000000) scale(0.100000,-0.100000)"
fill="#000000" stroke="none">
<path d="M1225 3381 c-160 -46 -246 -124 -357 -326 -43 -78 -78 -144 -78 -148
0 -3 12 -1 28 6 20 9 169 13 564 15 l537 3 25 55 c91 199 49 362 -103 404 -20
5 -150 10 -296 9 -215 0 -270 -3 -320 -18z"/>
<path d="M2262 3383 c-118 -2 -212 -7 -210 -12 2 -4 59 -107 128 -228 l125
-220 310 4 c282 4 319 3 405 -15 52 -11 96 -19 97 -18 5 5 -170 312 -198 348
-36 45 -143 99 -239 122 -87 19 -165 23 -418 19z"/>
<path d="M2063 2974 c-23 -38 -93 -161 -156 -274 -63 -113 -132 -236 -154
-275 -22 -38 -52 -92 -68 -120 -26 -47 -73 -131 -368 -650 -68 -121 -133 -243
-142 -270 -28 -79 -24 -201 10 -298 37 -107 143 -302 175 -322 5 -3 11 14 15
37 4 23 17 69 30 102 16 46 555 1008 809 1446 69 119 85 270 42 404 -23 72
-98 221 -134 266 l-18 22 -41 -68z"/>
<path d="M2515 2840 l-151 -5 126 -220 125 -220 350 -6 c207 -3 364 -10 385
-16 97 -30 96 -36 23 94 -37 65 -78 140 -92 167 -55 104 -147 162 -313 197
-96 19 -145 20 -453 9z"/>
<path d="M881 2814 c-141 -38 -269 -162 -381 -370 -29 -52 -50 -97 -48 -100 3
-2 22 4 44 13 35 16 88 18 574 21 l535 3 30 52 c16 29 71 126 122 217 l92 165
-187 6 c-362 12 -722 9 -781 -7z"/>
<path d="M2390 2517 c0 -33 -56 -141 -225 -437 -92 -162 -177 -311 -188 -330
-10 -19 -112 -197 -225 -395 -254 -445 -270 -480 -287 -623 -22 -179 97 -379
276 -465 42 -21 81 -37 87 -37 6 0 -1 26 -16 58 -23 49 -27 70 -26 147 1 92 5
109 55 195 83 142 680 1192 698 1227 55 109 63 253 22 383 -34 108 -169 328
-171 277z"/>
<path d="M560 2270 c-11 -11 -20 -32 -20 -46 0 -22 132 -270 219 -411 14 -23
85 -146 156 -273 l130 -232 7 51 c5 29 15 65 23 81 9 17 15 32 15 35 -2 14 77
149 131 224 33 46 59 87 57 90 -2 4 -70 118 -153 254 l-150 247 -197 0 c-185
0 -199 -1 -218 -20z"/>
<path d="M2676 2263 c4 -16 11 -38 15 -51 17 -45 3 -232 -23 -320 l-25 -83 48
-87 c26 -48 88 -161 136 -252 l89 -165 145 -7 c222 -12 305 11 303 84 -1 33
-27 81 -279 528 -23 41 -74 131 -113 200 -39 69 -76 137 -83 153 -12 27 -12
27 -116 27 l-103 0 6 -27z"/>
<path d="M3061 2148 c45 -78 132 -233 194 -343 194 -347 218 -387 232 -392 35
-13 137 126 174 235 81 239 -44 522 -270 613 -49 20 -78 23 -233 27 l-177 4
80 -144z"/>
<path d="M321 2108 c-42 -42 -74 -88 -99 -138 -34 -70 -36 -81 -37 -170 0 -92
2 -98 42 -180 23 -47 135 -245 249 -440 114 -195 224 -383 243 -417 203 -355
227 -391 315 -470 28 -25 78 -59 111 -74 l60 -29 209 0 209 0 -41 30 c-42 30
-63 63 -261 405 -539 934 -899 1540 -918 1543 -13 2 -40 -17 -82 -60z"/>
<path d="M3380 1222 c-39 -14 -121 -17 -574 -22 l-529 -5 -42 -75 c-96 -173
-110 -199 -152 -273 -25 -44 -43 -81 -41 -83 2 -2 215 -4 474 -4 507 -1 504
-2 599 54 56 33 164 148 217 231 53 81 112 195 101 194 -5 -1 -28 -8 -53 -17z"/>
<path d="M3065 670 c-11 -5 -261 -9 -556 -9 l-536 -1 -26 -55 c-86 -174 -65
-330 53 -392 45 -24 45 -24 355 -21 l310 3 69 33 c70 33 144 86 181 131 39 46
192 321 178 320 -4 0 -17 -4 -28 -9z"/>
</g>
</svg>
